<svg width="1054" height="156" viewBox="0 0 1054 156" fill="none" xmlns="http://www.w3.org/2000/svg">
<path d="M78.6 147C75.2667 147.533 71.6 148.133 67.6 148.8C63.6 149.467 60 150.067 56.8 150.6C57.3333 146.2 57.8667 141.867 58.4 137.6C58.8 133.867 59.1333 130.133 59.4 126.4C59.8 122.667 60.1333 119.467 60.4 116.8H43L35 145.6C32.0667 146 28.6 146.467 24.6 147C20.6 147.4 16.8667 147.8 13.4 148.2C9.13333 148.733 4.93333 149.267 0.8 149.8C6.13333 132.067 11.4 114.6 16.6 97.4C18.7333 90.2 20.9333 82.6667 23.2 74.8C25.6 66.9333 27.9333 59.1333 30.2 51.4C32.6 43.5333 34.8667 36 37 28.8C39.1333 21.6 41 15 42.6 8.99999C51.6667 8.33333 60.8667 7.53332 70.2 6.59999C79.6667 5.66666 88.8667 4.39999 97.8 2.79999C97.4 7.06666 96.9333 12.4 96.4 18.8C96 25.0667 95.6 31.9333 95.2 39.4C94.8 46.8667 94.4 54.6667 94 62.8C93.6 70.9333 93.2 78.9333 92.8 86.8C92.1333 105.2 91.4 124.733 90.6 145.4C86.6 146.067 82.6 146.6 78.6 147ZM47.8 96.8C48.3333 96.8 49.2667 96.8 50.6 96.8C52.0667 96.6667 53.5333 96.6 55 96.6C56.6 96.4667 58.0667 96.4 59.4 96.4C60.7333 96.2667 61.6667 96.1333 62.2 96C62.2 95.2 62.2667 93.8667 62.4 92C62.6667 90 62.8667 87.8 63 85.4C63.2667 82.8667 63.5333 80.1333 63.8 77.2C64.0667 74.2667 64.3333 71.4 64.6 68.6C65.1333 61.8 65.8 54.4667 66.6 46.6L67.8 29.2L64.8 29.4L60.2 46.6L47.8 96.8ZM116.523 152C120.523 132.8 124.323 114.2 127.923 96.2C129.257 88.4667 130.657 80.4667 132.123 72.2C133.723 63.9333 135.19 55.8 136.523 47.8C137.857 39.6667 139.057 31.9333 140.123 24.6C141.19 17.1333 141.99 10.4 142.523 4.39999C144.257 4.53332 145.723 4.59999 146.923 4.59999C148.123 4.59999 149.523 4.59999 151.123 4.59999C152.99 4.59999 155.257 4.59999 157.923 4.59999C160.59 4.46666 163.257 4.33333 165.923 4.19999C168.59 4.06666 171.457 3.93333 174.523 3.79999C176.39 13.1333 178.057 22.1333 179.523 30.8C180.99 38.4 182.457 46.2 183.923 54.2C185.523 62.2 186.923 69 188.123 74.6C188.657 71.9333 189.257 68.8667 189.923 65.4C190.59 61.8 191.323 58.0667 192.123 54.2C192.923 50.3333 193.657 46.4667 194.323 42.6C195.123 38.6 195.923 34.6667 196.723 30.8C198.59 22.1333 200.523 13.2 202.523 4L226.923 0.999988C222.39 21.4 218.39 40.7333 214.923 59C213.323 66.8667 211.723 74.8667 210.123 83C208.657 91 207.257 98.7333 205.923 106.2C204.59 113.533 203.457 120.4 202.523 126.8C201.59 133.067 200.857 138.333 200.323 142.6C199.923 142.6 198.323 142.933 195.523 143.6C192.857 144.133 189.723 144.8 186.123 145.6C182.657 146.4 179.123 147.2 175.523 148C172.057 148.8 169.457 149.533 167.723 150.2C166.923 139.533 166.057 129.4 165.123 119.8C164.723 115.667 164.257 111.467 163.723 107.2C163.323 102.8 162.857 98.6 162.323 94.6C161.79 90.6 161.257 86.8667 160.723 83.4C160.19 79.9333 159.657 76.9333 159.123 74.4C158.723 76.9333 158.19 79.8667 157.523 83.2C156.857 86.5333 156.19 90.0667 155.523 93.8C154.857 97.5333 154.19 101.467 153.523 105.6C152.857 109.6 152.123 113.467 151.323 117.2C149.59 126.133 147.723 135.467 145.723 145.2L116.523 152ZM331.753 48.8C331.753 55.7333 330.753 63.1333 328.753 71C326.753 78.7333 323.953 86.4667 320.353 94.2C316.753 101.8 312.286 109.133 306.953 116.2C301.753 123.133 295.82 129.267 289.153 134.6C282.486 139.8 275.153 144 267.153 147.2C259.286 150.4 250.886 152 241.953 152C240.086 152 238.22 151.867 236.353 151.6C234.486 151.467 232.62 151.267 230.753 151C234.353 132.6 237.886 114.667 241.353 97.2C242.686 89.8667 244.086 82.2667 245.553 74.4C247.02 66.4 248.42 58.5333 249.753 50.8C251.086 43.0667 252.353 35.6667 253.553 28.6C254.886 21.5333 255.953 15.1333 256.753 9.4C262.486 8.33333 268.286 7.33333 274.153 6.39999C280.02 5.46666 286.02 5 292.153 5C299.353 5 305.42 6.13333 310.353 8.39999C315.42 10.6667 319.486 13.8 322.553 17.8C325.753 21.8 328.086 26.4667 329.553 31.8C331.02 37.1333 331.753 42.8 331.753 48.8ZM284.553 33.2C283.086 41.0667 281.553 48.6 279.953 55.8C278.353 63 276.753 70.2667 275.153 77.6C273.553 84.9333 271.953 92.6 270.353 100.6C268.753 108.6 267.22 117.333 265.753 126.8C268.953 124.667 272.02 121.8 274.953 118.2C278.02 114.467 280.886 110.2 283.553 105.4C286.22 100.6 288.62 95.5333 290.753 90.2C293.02 84.8667 294.953 79.6667 296.553 74.6C298.153 69.5333 299.353 64.8 300.153 60.4C301.086 56 301.553 52.2 301.553 49C301.553 44.0667 300.153 40.2 297.353 37.4C294.686 34.6 290.42 33.2 284.553 33.2ZM399.297 149.8C405.164 132.067 410.764 114.667 416.097 97.6C418.364 90.4 420.697 82.8667 423.097 75C425.497 67.1333 427.897 59.3333 430.297 51.6C432.697 43.8667 434.897 36.4 436.897 29.2C439.03 22 440.897 15.3333 442.497 9.19999C449.83 9.19999 456.764 8.79999 463.297 7.99999C469.83 7.2 476.897 6.46666 484.497 5.8C484.097 8.73333 483.63 12.0667 483.097 15.8C482.697 19.4 482.164 23.2 481.497 27.2C480.964 31.2 480.364 35.3333 479.697 39.6C479.03 43.8667 478.23 49.3333 477.297 56C476.364 62.6667 475.097 71 473.497 81H476.097C479.964 70.8667 483.164 62.4667 485.697 55.8C488.23 49 490.297 43.4667 491.897 39.2C493.497 34.9333 495.097 30.8 496.697 26.8C498.43 22.6667 500.03 18.8 501.497 15.2C503.097 11.4667 504.564 8.19999 505.897 5.39999C509.23 5.13333 512.364 4.79999 515.297 4.39999C518.23 3.99999 521.164 3.59999 524.097 3.2C527.03 2.66666 529.964 2.19999 532.897 1.79999C535.964 1.26666 539.297 0.666655 542.897 -1.09673e-05C541.564 7.73333 540.297 15.6667 539.097 23.8C537.897 31.9333 536.83 40.0667 535.897 48.2C534.964 56.2 534.03 64.1333 533.097 72C532.297 79.8667 531.564 87.3333 530.897 94.4C529.297 110.933 527.897 127.067 526.697 142.8L491.897 149C491.897 148.333 491.964 146.533 492.097 143.6C492.364 140.667 492.63 137.067 492.897 132.8C493.297 128.533 493.764 123.8 494.297 118.6C494.964 113.4 495.564 108.2 496.097 103C496.764 97.8 497.43 92.8 498.097 88C498.764 83.0667 499.43 78.8667 500.097 75.4H498.297C496.43 81 494.364 86.9333 492.097 93.2C489.83 99.3333 487.497 105.6 485.097 112C482.83 118.4 480.564 124.667 478.297 130.8C476.03 136.933 474.03 142.8 472.297 148.4C467.63 148.533 463.63 148.733 460.297 149C456.964 149.133 453.097 149.333 448.697 149.6L455.097 75.4H452.097C451.83 77.1333 451.164 80.0667 450.097 84.2C449.03 88.2 447.764 92.8667 446.297 98.2C444.964 103.4 443.497 108.867 441.897 114.6C440.297 120.2 438.764 125.467 437.297 130.4C435.964 135.2 434.83 139.2 433.897 142.4C432.964 145.467 432.43 147.2 432.297 147.6L399.297 149.8ZM665.125 42.8C665.125 53.7333 663.925 64.0667 661.525 73.8C659.258 83.4 656.192 92.2667 652.325 100.4C648.458 108.4 643.925 115.6 638.725 122C633.658 128.267 628.325 133.667 622.725 138.2C617.125 142.6 611.458 146 605.725 148.4C599.992 150.667 594.525 151.8 589.325 151.8C584.925 151.8 580.925 151 577.325 149.4C573.725 147.667 570.592 145.2 567.925 142C565.258 138.667 563.125 134.467 561.525 129.4C560.058 124.2 559.325 118 559.325 110.8C559.325 103.333 560.258 95.4667 562.125 87.2C563.992 78.9333 566.525 70.7333 569.725 62.6C572.925 54.4667 576.858 46.7333 581.525 39.4C586.192 32.0667 591.325 25.6 596.925 20C602.525 14.2667 608.525 9.73333 614.925 6.39999C621.325 3.06666 627.992 1.39999 634.925 1.39999C640.925 1.39999 645.858 2.66666 649.725 5.19999C653.725 7.59999 656.792 10.8 658.925 14.8C661.192 18.6667 662.792 23.0667 663.725 28C664.658 32.9333 665.125 37.8667 665.125 42.8ZM589.125 105.6C589.125 107.067 589.392 108.6 589.925 110.2C590.458 111.8 591.192 113.2 592.125 114.4C593.058 115.6 594.192 116.667 595.525 117.6C596.992 118.4 598.525 118.8 600.125 118.8C606.125 118.8 611.458 116.733 616.125 112.6C620.792 108.467 624.658 103.4 627.725 97.4C630.792 91.4 633.125 85 634.725 78.2C636.458 71.4 637.325 65.2 637.325 59.6C637.325 58 637.192 56.2667 636.925 54.4C636.792 52.5333 636.392 50.8 635.725 49.2C635.192 47.6 634.258 46.2667 632.925 45.2C631.725 44 630.058 43.4 627.925 43.4C623.658 43.4 619.725 44.4667 616.125 46.6C612.525 48.7333 609.258 51.6 606.325 55.2C603.525 58.6667 601.058 62.6667 598.925 67.2C596.792 71.6 594.925 76.1333 593.325 80.8C591.858 85.3333 590.792 89.8 590.125 94.2C589.458 98.6 589.125 102.4 589.125 105.6ZM676.558 151.2C680.158 133.467 683.624 116.133 686.958 99.2C688.158 92 689.491 84.5333 690.958 76.8C692.424 68.9333 693.758 61.2 694.958 53.6C696.291 45.8667 697.491 38.4667 698.558 31.4C699.758 24.2 700.691 17.6667 701.358 11.8C708.958 9.39999 717.158 7.66666 725.958 6.59999C734.758 5.4 743.491 4.8 752.158 4.8C757.358 4.8 761.624 5.4 764.958 6.59999C768.424 7.79999 771.091 9.53332 772.958 11.8C774.958 13.9333 776.358 16.4667 777.158 19.4C777.958 22.3333 778.358 25.6 778.358 29.2C778.358 34.5333 777.424 39.8 775.558 45C773.691 50.0667 771.158 54.9333 767.958 59.6C764.891 64.1333 761.291 68.3333 757.158 72.2C753.158 75.9333 748.824 79 744.158 81.4C746.558 86.7333 749.091 92.6 751.758 99C754.558 105.267 757.158 111.267 759.558 117C762.224 123.667 764.958 130.333 767.758 137L736.758 147.8C734.091 139.267 731.691 131.267 729.558 123.8C728.624 120.733 727.691 117.6 726.758 114.4C725.824 111.067 724.958 107.933 724.158 105C723.358 102.067 722.691 99.4667 722.158 97.2C721.624 94.8 721.291 92.8667 721.158 91.4L718.558 92.2C717.758 96.4667 716.758 101.467 715.558 107.2C714.491 112.933 713.491 118.467 712.558 123.8C711.358 130.067 710.158 136.4 708.958 142.8L676.558 151.2ZM723.558 64.4C726.091 64.1333 729.158 63.0667 732.758 61.2C736.491 59.3333 740.024 57.1333 743.358 54.6C746.691 51.9333 749.558 49.2 751.958 46.4C754.358 43.6 755.558 41.1333 755.558 39C755.558 37.5333 755.091 36.4 754.158 35.6C753.224 34.6667 751.891 34 750.158 33.6C748.558 33.0667 746.758 32.7333 744.758 32.6C742.758 32.4667 740.691 32.4 738.558 32.4C737.091 32.4 735.558 32.4667 733.958 32.6C732.491 32.6 731.158 32.6 729.958 32.6L723.558 64.4ZM790.225 151.2L816.425 8.99999L879.625 3.59999C878.692 6.53333 877.892 9.53333 877.225 12.6C876.558 15.1333 875.892 17.8 875.225 20.6C874.692 23.2667 874.225 25.6667 873.825 27.8C872.492 27.9333 870.558 28.0667 868.025 28.2C865.625 28.2 863.025 28.2667 860.225 28.4C857.425 28.4 854.558 28.4 851.625 28.4C848.825 28.4 846.358 28.4 844.225 28.4L837.225 64.2C841.358 63.9333 845.225 63.7333 848.825 63.6C851.758 63.4667 854.758 63.4 857.825 63.4C860.892 63.4 863.158 63.3333 864.625 63.2C864.092 66.9333 863.558 70.6 863.025 74.2C862.625 77.8 862.092 81.4667 861.425 85.2C860.092 85.3333 857.892 85.4667 854.825 85.6C851.892 85.6 848.892 85.6667 845.825 85.8C842.358 85.9333 838.558 86.0667 834.425 86.2L827.625 123L856.825 118.4L854.825 141.2L790.225 151.2ZM922.389 135C922.389 137.533 921.789 140.067 920.589 142.6C919.522 145.133 917.922 147.4 915.789 149.4C913.656 151.267 910.989 152.733 907.789 153.8C904.589 155 900.922 155.6 896.789 155.6C893.989 155.6 891.456 155.067 889.189 154C886.922 152.933 885.056 151.533 883.589 149.8C882.256 147.933 881.189 145.867 880.389 143.6C879.589 141.333 879.189 139.067 879.189 136.8C879.189 134.267 879.589 131.867 880.389 129.6C881.189 127.2 882.389 125.133 883.989 123.4C885.722 121.533 887.789 120 890.189 118.8C892.722 117.6 895.722 117 899.189 117C906.922 117 912.722 118.867 916.589 122.6C920.456 126.2 922.389 130.333 922.389 135ZM988.186 135C988.186 137.533 987.586 140.067 986.386 142.6C985.319 145.133 983.719 147.4 981.586 149.4C979.453 151.267 976.786 152.733 973.586 153.8C970.386 155 966.719 155.6 962.586 155.6C959.786 155.6 957.253 155.067 954.986 154C952.719 152.933 950.853 151.533 949.386 149.8C948.053 147.933 946.986 145.867 946.186 143.6C945.386 141.333 944.986 139.067 944.986 136.8C944.986 134.267 945.386 131.867 946.186 129.6C946.986 127.2 948.186 125.133 949.786 123.4C951.519 121.533 953.586 120 955.986 118.8C958.519 117.6 961.519 117 964.986 117C972.719 117 978.519 118.867 982.386 122.6C986.253 126.2 988.186 130.333 988.186 135ZM1053.98 135C1053.98 137.533 1053.38 140.067 1052.18 142.6C1051.12 145.133 1049.52 147.4 1047.38 149.4C1045.25 151.267 1042.58 152.733 1039.38 153.8C1036.18 155 1032.52 155.6 1028.38 155.6C1025.58 155.6 1023.05 155.067 1020.78 154C1018.52 152.933 1016.65 151.533 1015.18 149.8C1013.85 147.933 1012.78 145.867 1011.98 143.6C1011.18 141.333 1010.78 139.067 1010.78 136.8C1010.78 134.267 1011.18 131.867 1011.98 129.6C1012.78 127.2 1013.98 125.133 1015.58 123.4C1017.32 121.533 1019.38 120 1021.78 118.8C1024.32 117.6 1027.32 117 1030.78 117C1038.52 117 1044.32 118.867 1048.18 122.6C1052.05 126.2 1053.98 130.333 1053.98 135Z" fill="black" fill-opacity="0.22"/>
</svg>
