<svg width="2457" height="233" viewBox="0 0 2457 233" fill="none" xmlns="http://www.w3.org/2000/svg">
<path d="M151.7 71.7C151.7 82.1 150.2 93.2 147.2 105C144.2 116.6 140 128.2 134.6 139.8C129.2 151.2 122.5 162.2 114.5 172.8C106.7 183.2 97.8 192.4 87.8 200.4C77.8 208.2 66.8 214.5 54.8 219.3C43 224.1 30.4 226.5 17 226.5C14.2 226.5 11.4 226.3 8.6 225.9C5.8 225.7 3 225.4 0.2 225C5.6 197.4 10.9 170.5 16.1 144.3C18.1 133.3 20.2 121.9 22.4 110.1C24.6 98.1 26.7 86.3 28.7 74.7C30.7 63.1 32.6 52 34.4 41.4C36.4 30.8 38 21.2 39.2 12.6C47.8 11 56.5 9.49999 65.3 8.09999C74.1 6.69999 83.1 5.99999 92.3 5.99999C103.1 5.99999 112.2 7.69999 119.6 11.1C127.2 14.5 133.3 19.2 137.9 25.2C142.7 31.2 146.2 38.2 148.4 46.2C150.6 54.2 151.7 62.7 151.7 71.7ZM80.9 48.3C78.7 60.1 76.4 71.4 74 82.2C71.6 93 69.2 103.9 66.8 114.9C64.4 125.9 62 137.4 59.6 149.4C57.2 161.4 54.9 174.5 52.7 188.7C57.5 185.5 62.1 181.2 66.5 175.8C71.1 170.2 75.4 163.8 79.4 156.6C83.4 149.4 87 141.8 90.2 133.8C93.6 125.8 96.5 118 98.9 110.4C101.3 102.8 103.1 95.7 104.3 89.1C105.7 82.5 106.4 76.8 106.4 72C106.4 64.6 104.3 58.8 100.1 54.6C96.1 50.4 89.7 48.3 80.9 48.3ZM218.422 219C216.622 219 213.022 219.3 207.622 219.9C202.422 220.3 197.022 220.9 191.422 221.7C185.822 222.3 180.722 222.9 176.122 223.5C171.722 224.1 169.322 224.5 168.922 224.7C170.922 216.1 172.922 206.6 174.922 196.2C177.122 185.6 179.322 174.6 181.522 163.2C183.722 151.6 185.822 139.9 187.822 128.1C189.822 116.3 191.722 104.9 193.522 93.9C197.722 68.3 201.922 42 206.122 15L252.922 7.49999C248.322 34.3 243.822 60.6 239.422 86.4C237.622 97.4 235.722 108.8 233.722 120.6C231.922 132.4 230.022 144.1 228.022 155.7C226.222 167.3 224.522 178.6 222.922 189.6C221.322 200.4 219.822 210.2 218.422 219ZM427.266 110.7C425.866 131.1 421.866 148.9 415.266 164.1C408.666 179.1 400.666 191.7 391.266 201.9C382.066 212.1 372.066 219.7 361.266 224.7C350.666 229.7 340.566 232.2 330.966 232.2C323.566 232.2 316.466 230.6 309.666 227.4C303.066 224.2 297.266 219.4 292.266 213C287.466 206.4 283.666 198.2 280.866 188.4C278.066 178.6 276.666 167.1 276.666 153.9C276.666 128.1 280.366 105.6 287.766 86.4C295.166 67.2 304.466 51.2 315.666 38.4C327.066 25.6 339.166 16.1 351.966 9.9C364.966 3.69999 377.066 0.599992 388.266 0.599992C396.266 0.599992 403.166 1.99999 408.966 4.79999C414.966 7.59999 419.866 11.4 423.666 16.2C427.466 20.8 430.166 26.3 431.766 32.7C433.566 38.9 434.466 45.5 434.466 52.5L393.366 60.3C391.566 52.3 389.166 46.6 386.166 43.2C383.166 39.8 379.766 38.1 375.966 38.1C370.966 38.1 365.466 41.7 359.466 48.9C353.466 55.9 347.866 65 342.666 76.2C337.466 87.4 333.066 99.7 329.466 113.1C325.866 126.5 323.866 139.7 323.466 152.7C323.466 165.1 325.266 174 328.866 179.4C332.666 184.6 337.466 187.2 343.266 187.2C347.266 187.2 351.366 186.2 355.566 184.2C359.966 182.2 363.866 179.4 367.266 175.8C370.666 172 373.466 167.7 375.666 162.9C378.066 157.9 379.366 152.5 379.566 146.7L347.466 151.5L353.166 121.8C362.566 120.6 371.766 119.4 380.766 118.2C388.366 117.2 396.366 116 404.766 114.6C413.366 113.2 420.866 111.9 427.266 110.7ZM500.773 219C498.973 219 495.373 219.3 489.973 219.9C484.773 220.3 479.373 220.9 473.773 221.7C468.173 222.3 463.073 222.9 458.473 223.5C454.073 224.1 451.673 224.5 451.273 224.7C453.273 216.1 455.273 206.6 457.273 196.2C459.473 185.6 461.673 174.6 463.873 163.2C466.073 151.6 468.173 139.9 470.173 128.1C472.173 116.3 474.073 104.9 475.873 93.9C480.073 68.3 484.273 42 488.473 15L535.273 7.49999C530.673 34.3 526.173 60.6 521.773 86.4C519.973 97.4 518.073 108.8 516.073 120.6C514.273 132.4 512.373 144.1 510.373 155.7C508.573 167.3 506.873 178.6 505.273 189.6C503.673 200.4 502.173 210.2 500.773 219ZM573.418 225.3C578.018 203.3 582.418 181.6 586.618 160.2C588.418 151.2 590.218 141.8 592.018 132C593.818 122.2 595.518 112.6 597.118 103.2C598.918 93.6 600.418 84.4 601.618 75.6C603.018 66.6 604.218 58.4 605.218 51C600.618 50.4 595.918 50.2 591.118 50.4C586.518 50.6 581.918 50 577.318 48.6C577.518 45.4 577.618 41.7 577.618 37.5C577.618 33.3 577.718 29.1 577.918 24.9C578.118 20.3 578.318 15.4 578.518 10.2C583.718 10.6 588.918 10.9 594.118 11.1C599.318 11.3 604.518 11.4 609.718 11.4C619.918 11.4 629.718 11.2 639.118 10.8C648.718 10.2 657.518 9.6 665.518 8.99999C673.718 8.19999 681.718 7.29999 689.518 6.29999L686.218 22.5C685.218 27.1 684.218 31.8 683.218 36.6C682.418 41.4 681.618 45.5 680.818 48.9C676.418 50.1 671.918 51 667.318 51.6C662.918 52 658.518 52.6 654.118 53.4C652.718 60.2 651.218 67.8 649.618 76.2C648.018 84.4 646.418 93 644.818 102C643.418 110.8 642.018 119.8 640.618 129C639.218 138.2 637.818 147 636.418 155.4C633.218 175.2 630.218 195.7 627.418 216.9L573.418 225.3ZM801.509 219C796.509 219.8 791.009 220.7 785.009 221.7C779.009 222.7 773.609 223.6 768.809 224.4C769.609 217.8 770.409 211.3 771.209 204.9C771.809 199.3 772.309 193.7 772.709 188.1C773.309 182.5 773.809 177.7 774.209 173.7H748.109L736.109 216.9C731.709 217.5 726.509 218.2 720.509 219C714.509 219.6 708.909 220.2 703.709 220.8C697.309 221.6 691.009 222.4 684.809 223.2C692.809 196.6 700.709 170.4 708.509 144.6C711.709 133.8 715.009 122.5 718.409 110.7C722.009 98.9 725.509 87.2 728.909 75.6C732.509 63.8 735.909 52.5 739.109 41.7C742.309 30.9 745.109 21 747.509 12C761.109 11 774.909 9.79999 788.909 8.39998C803.109 6.99999 816.909 5.09999 830.309 2.69998C829.709 9.09998 829.009 17.1 828.209 26.7C827.609 36.1 827.009 46.4 826.409 57.6C825.809 68.8 825.209 80.5 824.609 92.7C824.009 104.9 823.409 116.9 822.809 128.7C821.809 156.3 820.709 185.6 819.509 216.6C813.509 217.6 807.509 218.4 801.509 219ZM755.309 143.7C756.109 143.7 757.509 143.7 759.509 143.7C761.709 143.5 763.909 143.4 766.109 143.4C768.509 143.2 770.709 143.1 772.709 143.1C774.709 142.9 776.109 142.7 776.909 142.5C776.909 141.3 777.009 139.3 777.209 136.5C777.609 133.5 777.909 130.2 778.109 126.6C778.509 122.8 778.909 118.7 779.309 114.3C779.709 109.9 780.109 105.6 780.509 101.4C781.309 91.2 782.309 80.2 783.509 68.4L785.309 42.3L780.809 42.6L773.909 68.4L755.309 143.7ZM939.695 215.4C933.495 215.4 926.895 215.6 919.895 216C913.095 216.4 906.195 217 899.195 217.8C892.195 218.6 885.295 219.7 878.495 221.1C871.895 222.3 865.895 223.8 860.495 225.6C861.695 216.6 863.095 206.6 864.695 195.6C866.295 184.6 868.095 173.2 870.095 161.4C872.295 149.6 874.395 137.7 876.395 125.7C878.595 113.7 880.795 102.2 882.995 91.2C887.995 65 893.295 38.3 898.895 11.1L951.395 4.19998C945.995 27.4 940.795 50 935.795 72C933.595 81.4 931.395 91.2 929.195 101.4C926.995 111.4 924.895 121.2 922.895 130.8C920.895 140.4 919.095 149.7 917.495 158.7C915.895 167.7 914.595 175.7 913.595 182.7C918.595 182.3 923.895 182.1 929.495 182.1C935.295 181.9 940.395 181.8 944.795 181.8C944.995 185.6 945.295 189.4 945.695 193.2C946.095 196.8 946.495 200.1 946.895 203.1C947.495 206.1 947.895 208.8 948.095 211.2C948.495 213.4 948.795 214.9 948.995 215.7C947.395 215.7 945.795 215.7 944.195 215.7C942.795 215.5 941.295 215.4 939.695 215.4ZM1188.42 219C1183.42 219.8 1177.92 220.7 1171.92 221.7C1165.92 222.7 1160.52 223.6 1155.72 224.4C1156.52 217.8 1157.32 211.3 1158.12 204.9C1158.72 199.3 1159.22 193.7 1159.62 188.1C1160.22 182.5 1160.72 177.7 1161.12 173.7H1135.02L1123.02 216.9C1118.62 217.5 1113.42 218.2 1107.42 219C1101.42 219.6 1095.82 220.2 1090.62 220.8C1084.22 221.6 1077.92 222.4 1071.72 223.2C1079.72 196.6 1087.62 170.4 1095.42 144.6C1098.62 133.8 1101.92 122.5 1105.32 110.7C1108.92 98.9 1112.42 87.2 1115.82 75.6C1119.42 63.8 1122.82 52.5 1126.02 41.7C1129.22 30.9 1132.02 21 1134.42 12C1148.02 11 1161.82 9.79999 1175.82 8.39998C1190.02 6.99999 1203.82 5.09999 1217.22 2.69998C1216.62 9.09998 1215.92 17.1 1215.12 26.7C1214.52 36.1 1213.92 46.4 1213.32 57.6C1212.72 68.8 1212.12 80.5 1211.52 92.7C1210.92 104.9 1210.32 116.9 1209.72 128.7C1208.72 156.3 1207.62 185.6 1206.42 216.6C1200.42 217.6 1194.42 218.4 1188.42 219ZM1142.22 143.7C1143.02 143.7 1144.42 143.7 1146.42 143.7C1148.62 143.5 1150.82 143.4 1153.02 143.4C1155.42 143.2 1157.62 143.1 1159.62 143.1C1161.62 142.9 1163.02 142.7 1163.82 142.5C1163.82 141.3 1163.92 139.3 1164.12 136.5C1164.52 133.5 1164.82 130.2 1165.02 126.6C1165.42 122.8 1165.82 118.7 1166.22 114.3C1166.62 109.9 1167.02 105.6 1167.42 101.4C1168.22 91.2 1169.22 80.2 1170.42 68.4L1172.22 42.3L1167.72 42.6L1160.82 68.4L1142.22 143.7ZM1245 225.3C1250.4 198.7 1255.6 172.7 1260.6 147.3C1262.4 136.5 1264.4 125.3 1266.6 113.7C1268.8 101.9 1270.8 90.3 1272.6 78.9C1274.6 67.3 1276.4 56.2 1278 45.6C1279.8 34.8 1281.2 25 1282.2 16.2C1293.6 12.6 1305.9 9.99998 1319.1 8.39998C1332.3 6.59999 1345.4 5.7 1358.4 5.7C1366.2 5.7 1372.6 6.59999 1377.6 8.39998C1382.8 10.2 1386.8 12.8 1389.6 16.2C1392.6 19.4 1394.7 23.2 1395.9 27.6C1397.1 32 1397.7 36.9 1397.7 42.3C1397.7 50.3 1396.3 58.2 1393.5 66C1390.7 73.6 1386.9 80.9 1382.1 87.9C1377.5 94.7 1372.1 101 1365.9 106.8C1359.9 112.4 1353.4 117 1346.4 120.6C1350 128.6 1353.8 137.4 1357.8 147C1362 156.4 1365.9 165.4 1369.5 174C1373.5 184 1377.6 194 1381.8 204L1335.3 220.2C1331.3 207.4 1327.7 195.4 1324.5 184.2C1323.1 179.6 1321.7 174.9 1320.3 170.1C1318.9 165.1 1317.6 160.4 1316.4 156C1315.2 151.6 1314.2 147.7 1313.4 144.3C1312.6 140.7 1312.1 137.8 1311.9 135.6L1308 136.8C1306.8 143.2 1305.3 150.7 1303.5 159.3C1301.9 167.9 1300.4 176.2 1299 184.2C1297.2 193.6 1295.4 203.1 1293.6 212.7L1245 225.3ZM1315.5 95.1C1319.3 94.7 1323.9 93.1 1329.3 90.3C1334.9 87.5 1340.2 84.2 1345.2 80.4C1350.2 76.4 1354.5 72.3 1358.1 68.1C1361.7 63.9 1363.5 60.2 1363.5 57C1363.5 54.8 1362.8 53.1 1361.4 51.9C1360 50.5 1358 49.5 1355.4 48.9C1353 48.1 1350.3 47.6 1347.3 47.4C1344.3 47.2 1341.2 47.1 1338 47.1C1335.8 47.1 1333.5 47.2 1331.1 47.4C1328.9 47.4 1326.9 47.4 1325.1 47.4L1315.5 95.1ZM1440.1 225.3C1444.7 203.3 1449.1 181.6 1453.3 160.2C1455.1 151.2 1456.9 141.8 1458.7 132C1460.5 122.2 1462.2 112.6 1463.8 103.2C1465.6 93.6 1467.1 84.4 1468.3 75.6C1469.7 66.6 1470.9 58.4 1471.9 51C1467.3 50.4 1462.6 50.2 1457.8 50.4C1453.2 50.6 1448.6 50 1444 48.6C1444.2 45.4 1444.3 41.7 1444.3 37.5C1444.3 33.3 1444.4 29.1 1444.6 24.9C1444.8 20.3 1445 15.4 1445.2 10.2C1450.4 10.6 1455.6 10.9 1460.8 11.1C1466 11.3 1471.2 11.4 1476.4 11.4C1486.6 11.4 1496.4 11.2 1505.8 10.8C1515.4 10.2 1524.2 9.6 1532.2 8.99999C1540.4 8.19999 1548.4 7.29999 1556.2 6.29999L1552.9 22.5C1551.9 27.1 1550.9 31.8 1549.9 36.6C1549.1 41.4 1548.3 45.5 1547.5 48.9C1543.1 50.1 1538.6 51 1534 51.6C1529.6 52 1525.2 52.6 1520.8 53.4C1519.4 60.2 1517.9 67.8 1516.3 76.2C1514.7 84.4 1513.1 93 1511.5 102C1510.1 110.8 1508.7 119.8 1507.3 129C1505.9 138.2 1504.5 147 1503.1 155.4C1499.9 175.2 1496.9 195.7 1494.1 216.9L1440.1 225.3ZM1570.09 226.2L1592.89 13.2C1602.29 12.8 1611.09 11.9 1619.29 10.5C1627.69 8.89999 1635.99 7.79999 1644.19 7.2C1644.19 7.39999 1643.89 9.49999 1643.29 13.5C1642.69 17.3 1641.89 22.4 1640.89 28.8C1639.89 35 1638.79 42.1 1637.59 50.1C1636.39 57.9 1634.59 68.7 1632.19 82.5C1629.99 96.3 1626.99 115.4 1623.19 139.8H1627.69C1632.89 121.4 1637.19 106.4 1640.59 94.8C1643.99 83 1646.69 73.5 1648.69 66.3C1650.89 58.9 1652.89 51.8 1654.69 45C1656.69 38.2 1658.49 31.9 1660.09 26.1C1661.89 20.3 1663.29 15.4 1664.29 11.4H1666.99C1670.59 11.4 1674.19 11.2 1677.79 10.8C1681.59 10.4 1685.09 9.99999 1688.29 9.59998C1691.69 8.99999 1695.19 8.29999 1698.79 7.49999C1698.39 9.29999 1697.89 13 1697.29 18.6C1696.89 24.2 1696.29 31 1695.49 39C1694.69 46.8 1693.89 55.5 1693.09 65.1C1692.29 74.5 1691.49 83.8 1690.69 93C1689.89 102 1689.09 110.6 1688.29 118.8C1687.69 127 1687.09 134 1686.49 139.8H1691.89L1720.39 10.8C1727.19 9.79999 1733.89 8.89999 1740.49 8.09999C1746.29 7.29998 1752.29 6.49999 1758.49 5.7C1764.69 4.9 1770.19 4 1774.99 3C1771.99 11.4 1768.99 20.8 1765.99 31.2C1762.99 41.4 1759.89 52.2 1756.69 63.6C1753.49 75 1750.39 86.5 1747.39 98.1C1744.59 109.7 1741.79 120.9 1738.99 131.7C1732.59 157.3 1726.39 183.6 1720.39 210.6L1652.59 222L1665.79 106.2H1662.19L1632.49 215.1L1570.09 226.2ZM1941.97 62.7C1941.97 79.1 1940.17 94.6 1936.57 109.2C1933.17 123.6 1928.57 136.9 1922.77 149.1C1916.97 161.1 1910.17 171.9 1902.37 181.5C1894.77 190.9 1886.77 199 1878.37 205.8C1869.97 212.4 1861.47 217.5 1852.87 221.1C1844.27 224.5 1836.07 226.2 1828.27 226.2C1821.67 226.2 1815.67 225 1810.27 222.6C1804.87 220 1800.17 216.3 1796.17 211.5C1792.17 206.5 1788.97 200.2 1786.57 192.6C1784.37 184.8 1783.27 175.5 1783.27 164.7C1783.27 153.5 1784.67 141.7 1787.47 129.3C1790.27 116.9 1794.07 104.6 1798.87 92.4C1803.67 80.2 1809.57 68.6 1816.57 57.6C1823.57 46.6 1831.27 36.9 1839.67 28.5C1848.07 19.9 1857.07 13.1 1866.67 8.09999C1876.27 3.09999 1886.27 0.599992 1896.67 0.599992C1905.67 0.599992 1913.07 2.49999 1918.87 6.29999C1924.87 9.89999 1929.47 14.7 1932.67 20.7C1936.07 26.5 1938.47 33.1 1939.87 40.5C1941.27 47.9 1941.97 55.3 1941.97 62.7ZM1827.97 156.9C1827.97 159.1 1828.37 161.4 1829.17 163.8C1829.97 166.2 1831.07 168.3 1832.47 170.1C1833.87 171.9 1835.57 173.5 1837.57 174.9C1839.77 176.1 1842.07 176.7 1844.47 176.7C1853.47 176.7 1861.47 173.6 1868.47 167.4C1875.47 161.2 1881.27 153.6 1885.87 144.6C1890.47 135.6 1893.97 126 1896.37 115.8C1898.97 105.6 1900.27 96.3 1900.27 87.9C1900.27 85.5 1900.07 82.9 1899.67 80.1C1899.47 77.3 1898.87 74.7 1897.87 72.3C1897.07 69.9 1895.67 67.9 1893.67 66.3C1891.87 64.5 1889.37 63.6 1886.17 63.6C1879.77 63.6 1873.87 65.2 1868.47 68.4C1863.07 71.6 1858.17 75.9 1853.77 81.3C1849.57 86.5 1845.87 92.5 1842.67 99.3C1839.47 105.9 1836.67 112.7 1834.27 119.7C1832.07 126.5 1830.47 133.2 1829.47 139.8C1828.47 146.4 1827.97 152.1 1827.97 156.9ZM1959.12 225.3C1964.52 198.7 1969.72 172.7 1974.72 147.3C1976.52 136.5 1978.52 125.3 1980.72 113.7C1982.92 101.9 1984.92 90.3 1986.72 78.9C1988.72 67.3 1990.52 56.2 1992.12 45.6C1993.92 34.8 1995.32 25 1996.32 16.2C2007.72 12.6 2020.02 9.99998 2033.22 8.39998C2046.42 6.59999 2059.52 5.7 2072.52 5.7C2080.32 5.7 2086.72 6.59999 2091.72 8.39998C2096.92 10.2 2100.92 12.8 2103.72 16.2C2106.72 19.4 2108.82 23.2 2110.02 27.6C2111.22 32 2111.82 36.9 2111.82 42.3C2111.82 50.3 2110.42 58.2 2107.62 66C2104.82 73.6 2101.02 80.9 2096.22 87.9C2091.62 94.7 2086.22 101 2080.02 106.8C2074.02 112.4 2067.52 117 2060.52 120.6C2064.12 128.6 2067.92 137.4 2071.92 147C2076.12 156.4 2080.02 165.4 2083.62 174C2087.62 184 2091.72 194 2095.92 204L2049.42 220.2C2045.42 207.4 2041.82 195.4 2038.62 184.2C2037.22 179.6 2035.82 174.9 2034.42 170.1C2033.02 165.1 2031.72 160.4 2030.52 156C2029.32 151.6 2028.32 147.7 2027.52 144.3C2026.72 140.7 2026.22 137.8 2026.02 135.6L2022.12 136.8C2020.92 143.2 2019.42 150.7 2017.62 159.3C2016.02 167.9 2014.52 176.2 2013.12 184.2C2011.32 193.6 2009.52 203.1 2007.72 212.7L1959.12 225.3ZM2029.62 95.1C2033.42 94.7 2038.02 93.1 2043.42 90.3C2049.02 87.5 2054.32 84.2 2059.32 80.4C2064.32 76.4 2068.62 72.3 2072.22 68.1C2075.82 63.9 2077.62 60.2 2077.62 57C2077.62 54.8 2076.92 53.1 2075.52 51.9C2074.12 50.5 2072.12 49.5 2069.52 48.9C2067.12 48.1 2064.42 47.6 2061.42 47.4C2058.42 47.2 2055.32 47.1 2052.12 47.1C2049.92 47.1 2047.62 47.2 2045.22 47.4C2043.02 47.4 2041.02 47.4 2039.22 47.4L2029.62 95.1ZM2129.32 225.3C2135.32 197.3 2140.92 170.1 2146.12 143.7C2148.12 132.3 2150.22 120.5 2152.42 108.3C2154.62 96.1 2156.62 84 2158.42 72C2160.42 60 2162.12 48.4 2163.52 37.2C2165.12 25.8 2166.32 15.5 2167.12 6.29999C2171.72 6.69999 2176.92 7.09999 2182.72 7.49999C2188.52 7.69999 2193.92 7.99999 2198.92 8.39998C2204.92 8.79999 2210.92 8.99999 2216.92 8.99999C2216.72 9.79999 2216.42 11.3 2216.02 13.5C2215.62 15.7 2215.12 18.4 2214.52 21.6C2213.92 24.6 2213.22 28 2212.42 31.8C2211.82 35.6 2211.12 39.4 2210.32 43.2C2208.72 52 2206.92 61.9 2204.92 72.9L2206.72 72.6C2208.72 69.4 2211.52 65 2215.12 59.4C2218.92 53.6 2222.82 47.5 2226.82 41.1C2230.82 34.7 2234.72 28.6 2238.52 22.8C2242.32 16.8 2245.52 11.7 2248.12 7.49999C2258.12 6.69999 2268.12 5.79999 2278.12 4.79999C2288.12 3.79999 2298.12 2.49999 2308.12 0.899988C2298.72 13.5 2289.62 25.9 2280.82 38.1C2277.02 43.3 2273.12 48.7 2269.12 54.3C2265.32 59.9 2261.52 65.4 2257.72 70.8C2253.92 76.2 2250.32 81.4 2246.92 86.4C2243.72 91.4 2240.82 96 2238.22 100.2C2242.62 120.4 2247.82 139.9 2253.82 158.7C2259.82 177.5 2265.92 196.7 2272.12 216.3C2267.52 216.1 2262.82 216 2258.02 216C2253.22 215.8 2248.52 215.7 2243.92 215.7C2238.12 215.7 2232.52 215.8 2227.12 216C2221.72 216 2216.12 216.1 2210.32 216.3C2208.52 203.3 2206.52 189.7 2204.32 175.5C2202.32 161.1 2200.42 147.4 2198.62 134.4L2193.22 140.7C2191.82 146.7 2190.22 154.1 2188.42 162.9C2186.82 171.7 2185.22 180.2 2183.62 188.4C2181.82 198 2179.92 207.9 2177.92 218.1L2129.32 225.3ZM2434.69 150.9C2434.69 162.1 2432.49 172.3 2428.09 181.5C2423.89 190.5 2418.09 198.3 2410.69 204.9C2403.49 211.5 2394.89 216.6 2384.89 220.2C2375.09 223.8 2364.49 225.6 2353.09 225.6C2345.09 225.6 2337.09 223.5 2329.09 219.3C2321.09 214.9 2313.39 208 2305.99 198.6L2328.19 155.1C2329.59 157.7 2331.69 160.4 2334.49 163.2C2337.29 165.8 2340.39 168.1 2343.79 170.1C2347.39 172.1 2350.89 173.8 2354.29 175.2C2357.89 176.4 2361.09 177 2363.89 177C2366.29 177 2368.79 176.6 2371.39 175.8C2373.99 175 2376.39 173.8 2378.59 172.2C2380.79 170.6 2382.49 168.8 2383.69 166.8C2385.09 164.6 2385.79 162.1 2385.79 159.3C2385.79 154.5 2384.19 150.1 2380.99 146.1C2377.99 141.9 2374.19 138 2369.59 134.4C2364.99 130.6 2359.99 126.8 2354.59 123C2349.19 119.2 2344.19 115.2 2339.59 111C2335.19 106.8 2331.39 102.1 2328.19 96.9C2324.99 91.7 2323.39 85.9 2323.39 79.5C2323.39 69.1 2326.49 59.4 2332.69 50.4C2338.89 41.4 2346.59 33.7 2355.79 27.3C2365.19 20.7 2375.39 15.5 2386.39 11.7C2397.39 7.89999 2407.79 5.99999 2417.59 5.99999C2422.99 5.99999 2428.09 6.69999 2432.89 8.09999C2437.69 9.29999 2441.79 11.4 2445.19 14.4C2448.79 17.2 2451.59 20.8 2453.59 25.2C2455.79 29.6 2456.89 35.1 2456.89 41.7C2456.89 44.5 2456.59 47.3 2455.99 50.1C2455.59 52.9 2455.19 55.9 2454.79 59.1L2411.29 71.7C2411.69 70.1 2411.99 68.5 2412.19 66.9C2412.59 65.3 2412.79 63.7 2412.79 62.1C2412.79 56.1 2411.69 51.8 2409.49 49.2C2407.49 46.4 2404.79 45 2401.39 45C2399.79 45 2397.79 45.6 2395.39 46.8C2393.19 48 2390.89 49.6 2388.49 51.6C2386.29 53.4 2384.39 55.6 2382.79 58.2C2381.19 60.8 2380.39 63.6 2380.39 66.6C2380.39 71.4 2381.69 75.4 2384.29 78.6C2387.09 81.8 2390.49 84.8 2394.49 87.6C2398.49 90.4 2402.79 93.3 2407.39 96.3C2412.19 99.1 2416.59 102.8 2420.59 107.4C2424.59 112 2427.89 117.8 2430.49 124.8C2433.29 131.6 2434.69 140.3 2434.69 150.9Z" fill="black" fill-opacity="0.22"/>
</svg>
