<svg width="1828" height="233" viewBox="0 0 1828 233" fill="none" xmlns="http://www.w3.org/2000/svg">
<path d="M0.1 225.3C6.1 198.3 11.8 171.9 17.2 146.1C19.4 135.3 21.7 123.9 24.1 111.9C26.5 99.9 28.8 88.1 31 76.5C33.2 64.9 35.3 53.7 37.3 42.9C39.3 32.1 41 22.2 42.4 13.2C48.2 11.4 53.9 9.89999 59.5 8.7C65.1 7.29999 70.8 6.09999 76.6 5.09999C82.6 4.09999 88.2 3.59999 93.4 3.59999C102.4 3.59999 109.9 5.09999 115.9 8.09999C122.1 11.1 127.1 15.2 130.9 20.4C134.7 25.4 137.4 31.3 139 38.1C140.6 44.9 141.4 52.2 141.4 60C141.4 71.2 139.3 82 135.1 92.4C131.1 102.8 125.6 112.1 118.6 120.3C111.8 128.3 103.9 134.7 94.9 139.5C86.1 144.3 76.9 146.7 67.3 146.7H64C62.4 153.5 60.9 160.9 59.5 168.9C58.1 176.9 56.9 184.3 55.9 191.1C54.5 199.1 53.2 207.1 52 215.1L0.1 225.3ZM83.8 39.9C81.6 53.1 79.4 65.6 77.2 77.4C75 89.2 72.6 101.8 70 115.2C73.2 114.4 76.5 112.6 79.9 109.8C83.5 106.8 86.8 103 89.8 98.4C92.8 93.6 95.2 88.1 97 81.9C98.8 75.7 99.7 69.2 99.7 62.4C99.7 55 98 49.4 94.6 45.6C91.4 41.8 87.8 39.9 83.8 39.9ZM153.072 225.6C158.672 197.6 164.072 170.3 169.272 143.7C171.272 132.3 173.372 120.5 175.572 108.3C177.772 95.9 179.772 83.7 181.572 71.7C183.572 59.7 185.372 48.1 186.972 36.9C188.772 25.5 190.172 15.2 191.172 5.99999C195.772 6.19999 199.972 6.49999 203.772 6.89998C207.772 7.09999 211.672 7.3 215.472 7.49999C219.272 7.69999 223.072 7.89999 226.872 8.09999C230.872 8.09999 235.172 8.09999 239.772 8.09999C236.372 22.3 232.972 36.5 229.572 50.7C226.372 64.9 223.372 79.2 220.572 93.6L250.272 90.3C253.072 76.1 255.572 62.4 257.772 49.2C259.972 35.8 262.872 22 266.472 7.79999C271.072 6.99999 276.172 6.39999 281.772 5.99999C287.372 5.39999 292.572 4.89999 297.372 4.5C302.172 4.09999 306.172 3.79999 309.372 3.59999C312.772 3.19999 314.472 3 314.472 3C311.672 12 308.972 21.9 306.372 32.7C303.972 43.3 301.572 54.4 299.172 66C296.772 77.4 294.472 89 292.272 100.8C290.072 112.6 288.072 123.8 286.272 134.4C281.872 159.8 277.772 185.8 273.972 212.4L227.172 217.8C229.772 205.8 232.072 194.1 234.072 182.7C236.072 173.1 238.072 163.1 240.072 152.7C242.272 142.3 243.972 133.4 245.172 126L216.072 128.7C214.672 136.3 212.972 145.1 210.972 155.1C209.172 165.1 207.472 174.6 205.872 183.6C203.672 194.4 201.472 205.2 199.272 216L153.072 225.6ZM487.094 62.7C487.094 79.1 485.294 94.6 481.694 109.2C478.294 123.6 473.694 136.9 467.894 149.1C462.094 161.1 455.294 171.9 447.494 181.5C439.894 190.9 431.894 199 423.494 205.8C415.094 212.4 406.594 217.5 397.994 221.1C389.394 224.5 381.194 226.2 373.394 226.2C366.794 226.2 360.794 225 355.394 222.6C349.994 220 345.294 216.3 341.294 211.5C337.294 206.5 334.094 200.2 331.694 192.6C329.494 184.8 328.394 175.5 328.394 164.7C328.394 153.5 329.794 141.7 332.594 129.3C335.394 116.9 339.194 104.6 343.994 92.4C348.794 80.2 354.694 68.6 361.694 57.6C368.694 46.6 376.394 36.9 384.794 28.5C393.194 19.9 402.194 13.1 411.794 8.09999C421.394 3.09999 431.394 0.599992 441.794 0.599992C450.794 0.599992 458.194 2.49999 463.994 6.29999C469.994 9.89999 474.594 14.7 477.794 20.7C481.194 26.5 483.594 33.1 484.994 40.5C486.394 47.9 487.094 55.3 487.094 62.7ZM373.094 156.9C373.094 159.1 373.494 161.4 374.294 163.8C375.094 166.2 376.194 168.3 377.594 170.1C378.994 171.9 380.694 173.5 382.694 174.9C384.894 176.1 387.194 176.7 389.594 176.7C398.594 176.7 406.594 173.6 413.594 167.4C420.594 161.2 426.394 153.6 430.994 144.6C435.594 135.6 439.094 126 441.494 115.8C444.094 105.6 445.394 96.3 445.394 87.9C445.394 85.5 445.194 82.9 444.794 80.1C444.594 77.3 443.994 74.7 442.994 72.3C442.194 69.9 440.794 67.9 438.794 66.3C436.994 64.5 434.494 63.6 431.294 63.6C424.894 63.6 418.994 65.2 413.594 68.4C408.194 71.6 403.294 75.9 398.894 81.3C394.694 86.5 390.994 92.5 387.794 99.3C384.594 105.9 381.794 112.7 379.394 119.7C377.194 126.5 375.594 133.2 374.594 139.8C373.594 146.4 373.094 152.1 373.094 156.9ZM530.043 225.3C534.643 203.3 539.043 181.6 543.243 160.2C545.043 151.2 546.843 141.8 548.643 132C550.443 122.2 552.143 112.6 553.743 103.2C555.543 93.6 557.043 84.4 558.243 75.6C559.643 66.6 560.843 58.4 561.843 51C557.243 50.4 552.543 50.2 547.743 50.4C543.143 50.6 538.543 50 533.943 48.6C534.143 45.4 534.243 41.7 534.243 37.5C534.243 33.3 534.343 29.1 534.543 24.9C534.743 20.3 534.943 15.4 535.143 10.2C540.343 10.6 545.543 10.9 550.743 11.1C555.943 11.3 561.143 11.4 566.343 11.4C576.543 11.4 586.343 11.2 595.743 10.8C605.343 10.2 614.143 9.6 622.143 8.99999C630.343 8.19999 638.343 7.29999 646.143 6.29999L642.843 22.5C641.843 27.1 640.843 31.8 639.843 36.6C639.043 41.4 638.243 45.5 637.443 48.9C633.043 50.1 628.543 51 623.943 51.6C619.543 52 615.143 52.6 610.743 53.4C609.343 60.2 607.843 67.8 606.243 76.2C604.643 84.4 603.043 93 601.443 102C600.043 110.8 598.643 119.8 597.243 129C595.843 138.2 594.443 147 593.043 155.4C589.843 175.2 586.843 195.7 584.043 216.9L530.043 225.3ZM815.734 62.7C815.734 79.1 813.934 94.6 810.334 109.2C806.934 123.6 802.334 136.9 796.534 149.1C790.734 161.1 783.934 171.9 776.134 181.5C768.534 190.9 760.534 199 752.134 205.8C743.734 212.4 735.234 217.5 726.634 221.1C718.034 224.5 709.834 226.2 702.034 226.2C695.434 226.2 689.434 225 684.034 222.6C678.634 220 673.934 216.3 669.934 211.5C665.934 206.5 662.734 200.2 660.334 192.6C658.134 184.8 657.034 175.5 657.034 164.7C657.034 153.5 658.434 141.7 661.234 129.3C664.034 116.9 667.834 104.6 672.634 92.4C677.434 80.2 683.334 68.6 690.334 57.6C697.334 46.6 705.034 36.9 713.434 28.5C721.834 19.9 730.834 13.1 740.434 8.09999C750.034 3.09999 760.034 0.599992 770.434 0.599992C779.434 0.599992 786.834 2.49999 792.634 6.29999C798.634 9.89999 803.234 14.7 806.434 20.7C809.834 26.5 812.234 33.1 813.634 40.5C815.034 47.9 815.734 55.3 815.734 62.7ZM701.734 156.9C701.734 159.1 702.134 161.4 702.934 163.8C703.734 166.2 704.834 168.3 706.234 170.1C707.634 171.9 709.334 173.5 711.334 174.9C713.534 176.1 715.834 176.7 718.234 176.7C727.234 176.7 735.234 173.6 742.234 167.4C749.234 161.2 755.034 153.6 759.634 144.6C764.234 135.6 767.734 126 770.134 115.8C772.734 105.6 774.034 96.3 774.034 87.9C774.034 85.5 773.834 82.9 773.434 80.1C773.234 77.3 772.634 74.7 771.634 72.3C770.834 69.9 769.434 67.9 767.434 66.3C765.634 64.5 763.134 63.6 759.934 63.6C753.534 63.6 747.634 65.2 742.234 68.4C736.834 71.6 731.934 75.9 727.534 81.3C723.334 86.5 719.634 92.5 716.434 99.3C713.234 105.9 710.434 112.7 708.034 119.7C705.834 126.5 704.234 133.2 703.234 139.8C702.234 146.4 701.734 152.1 701.734 156.9ZM994.884 110.7C993.484 131.1 989.484 148.9 982.884 164.1C976.284 179.1 968.284 191.7 958.884 201.9C949.684 212.1 939.684 219.7 928.884 224.7C918.284 229.7 908.184 232.2 898.584 232.2C891.184 232.2 884.084 230.6 877.284 227.4C870.684 224.2 864.884 219.4 859.884 213C855.084 206.4 851.284 198.2 848.484 188.4C845.684 178.6 844.284 167.1 844.284 153.9C844.284 128.1 847.984 105.6 855.384 86.4C862.784 67.2 872.084 51.2 883.284 38.4C894.684 25.6 906.784 16.1 919.584 9.9C932.584 3.69999 944.684 0.599992 955.884 0.599992C963.884 0.599992 970.784 1.99999 976.584 4.79999C982.584 7.59999 987.484 11.4 991.284 16.2C995.084 20.8 997.784 26.3 999.384 32.7C1001.18 38.9 1002.08 45.5 1002.08 52.5L960.984 60.3C959.184 52.3 956.784 46.6 953.784 43.2C950.784 39.8 947.384 38.1 943.584 38.1C938.584 38.1 933.084 41.7 927.084 48.9C921.084 55.9 915.484 65 910.284 76.2C905.084 87.4 900.684 99.7 897.084 113.1C893.484 126.5 891.484 139.7 891.084 152.7C891.084 165.1 892.884 174 896.484 179.4C900.284 184.6 905.084 187.2 910.884 187.2C914.884 187.2 918.984 186.2 923.184 184.2C927.584 182.2 931.484 179.4 934.884 175.8C938.284 172 941.084 167.7 943.284 162.9C945.684 157.9 946.984 152.5 947.184 146.7L915.084 151.5L920.784 121.8C930.184 120.6 939.384 119.4 948.384 118.2C955.984 117.2 963.984 116 972.384 114.6C980.984 113.2 988.484 111.9 994.884 110.7ZM1018.59 225.3C1023.99 198.7 1029.19 172.7 1034.19 147.3C1035.99 136.5 1037.99 125.3 1040.19 113.7C1042.39 101.9 1044.39 90.3 1046.19 78.9C1048.19 67.3 1049.99 56.2 1051.59 45.6C1053.39 34.8 1054.79 25 1055.79 16.2C1067.19 12.6 1079.49 9.99998 1092.69 8.39998C1105.89 6.59999 1118.99 5.7 1131.99 5.7C1139.79 5.7 1146.19 6.59999 1151.19 8.39998C1156.39 10.2 1160.39 12.8 1163.19 16.2C1166.19 19.4 1168.29 23.2 1169.49 27.6C1170.69 32 1171.29 36.9 1171.29 42.3C1171.29 50.3 1169.89 58.2 1167.09 66C1164.29 73.6 1160.49 80.9 1155.69 87.9C1151.09 94.7 1145.69 101 1139.49 106.8C1133.49 112.4 1126.99 117 1119.99 120.6C1123.59 128.6 1127.39 137.4 1131.39 147C1135.59 156.4 1139.49 165.4 1143.09 174C1147.09 184 1151.19 194 1155.39 204L1108.89 220.2C1104.89 207.4 1101.29 195.4 1098.09 184.2C1096.69 179.6 1095.29 174.9 1093.89 170.1C1092.49 165.1 1091.19 160.4 1089.99 156C1088.79 151.6 1087.79 147.7 1086.99 144.3C1086.19 140.7 1085.69 137.8 1085.49 135.6L1081.59 136.8C1080.39 143.2 1078.89 150.7 1077.09 159.3C1075.49 167.9 1073.99 176.2 1072.59 184.2C1070.79 193.6 1068.99 203.1 1067.19 212.7L1018.59 225.3ZM1089.09 95.1C1092.89 94.7 1097.49 93.1 1102.89 90.3C1108.49 87.5 1113.79 84.2 1118.79 80.4C1123.79 76.4 1128.09 72.3 1131.69 68.1C1135.29 63.9 1137.09 60.2 1137.09 57C1137.09 54.8 1136.39 53.1 1134.99 51.9C1133.59 50.5 1131.59 49.5 1128.99 48.9C1126.59 48.1 1123.89 47.6 1120.89 47.4C1117.89 47.2 1114.79 47.1 1111.59 47.1C1109.39 47.1 1107.09 47.2 1104.69 47.4C1102.49 47.4 1100.49 47.4 1098.69 47.4L1089.09 95.1ZM1297.09 219C1292.09 219.8 1286.59 220.7 1280.59 221.7C1274.59 222.7 1269.19 223.6 1264.39 224.4C1265.19 217.8 1265.99 211.3 1266.79 204.9C1267.39 199.3 1267.89 193.7 1268.29 188.1C1268.89 182.5 1269.39 177.7 1269.79 173.7H1243.69L1231.69 216.9C1227.29 217.5 1222.09 218.2 1216.09 219C1210.09 219.6 1204.49 220.2 1199.29 220.8C1192.89 221.6 1186.59 222.4 1180.39 223.2C1188.39 196.6 1196.29 170.4 1204.09 144.6C1207.29 133.8 1210.59 122.5 1213.99 110.7C1217.59 98.9 1221.09 87.2 1224.49 75.6C1228.09 63.8 1231.49 52.5 1234.69 41.7C1237.89 30.9 1240.69 21 1243.09 12C1256.69 11 1270.49 9.79999 1284.49 8.39998C1298.69 6.99999 1312.49 5.09999 1325.89 2.69998C1325.29 9.09998 1324.59 17.1 1323.79 26.7C1323.19 36.1 1322.59 46.4 1321.99 57.6C1321.39 68.8 1320.79 80.5 1320.19 92.7C1319.59 104.9 1318.99 116.9 1318.39 128.7C1317.39 156.3 1316.29 185.6 1315.09 216.6C1309.09 217.6 1303.09 218.4 1297.09 219ZM1250.89 143.7C1251.69 143.7 1253.09 143.7 1255.09 143.7C1257.29 143.5 1259.49 143.4 1261.69 143.4C1264.09 143.2 1266.29 143.1 1268.29 143.1C1270.29 142.9 1271.69 142.7 1272.49 142.5C1272.49 141.3 1272.59 139.3 1272.79 136.5C1273.19 133.5 1273.49 130.2 1273.69 126.6C1274.09 122.8 1274.49 118.7 1274.89 114.3C1275.29 109.9 1275.69 105.6 1276.09 101.4C1276.89 91.2 1277.89 80.2 1279.09 68.4L1280.89 42.3L1276.39 42.6L1269.49 68.4L1250.89 143.7ZM1351.58 225.3C1357.58 198.3 1363.28 171.9 1368.68 146.1C1370.88 135.3 1373.18 123.9 1375.58 111.9C1377.98 99.9 1380.28 88.1 1382.48 76.5C1384.68 64.9 1386.78 53.7 1388.78 42.9C1390.78 32.1 1392.48 22.2 1393.88 13.2C1399.68 11.4 1405.38 9.89999 1410.98 8.7C1416.58 7.29999 1422.28 6.09999 1428.08 5.09999C1434.08 4.09999 1439.68 3.59999 1444.88 3.59999C1453.88 3.59999 1461.38 5.09999 1467.38 8.09999C1473.58 11.1 1478.58 15.2 1482.38 20.4C1486.18 25.4 1488.88 31.3 1490.48 38.1C1492.08 44.9 1492.88 52.2 1492.88 60C1492.88 71.2 1490.78 82 1486.58 92.4C1482.58 102.8 1477.08 112.1 1470.08 120.3C1463.28 128.3 1455.38 134.7 1446.38 139.5C1437.58 144.3 1428.38 146.7 1418.78 146.7H1415.48C1413.88 153.5 1412.38 160.9 1410.98 168.9C1409.58 176.9 1408.38 184.3 1407.38 191.1C1405.98 199.1 1404.68 207.1 1403.48 215.1L1351.58 225.3ZM1435.28 39.9C1433.08 53.1 1430.88 65.6 1428.68 77.4C1426.48 89.2 1424.08 101.8 1421.48 115.2C1424.68 114.4 1427.98 112.6 1431.38 109.8C1434.98 106.8 1438.28 103 1441.28 98.4C1444.28 93.6 1446.68 88.1 1448.48 81.9C1450.28 75.7 1451.18 69.2 1451.18 62.4C1451.18 55 1449.48 49.4 1446.08 45.6C1442.88 41.8 1439.28 39.9 1435.28 39.9ZM1504.55 225.6C1510.15 197.6 1515.55 170.3 1520.75 143.7C1522.75 132.3 1524.85 120.5 1527.05 108.3C1529.25 95.9 1531.25 83.7 1533.05 71.7C1535.05 59.7 1536.85 48.1 1538.45 36.9C1540.25 25.5 1541.65 15.2 1542.65 5.99999C1547.25 6.19999 1551.45 6.49999 1555.25 6.89998C1559.25 7.09999 1563.15 7.3 1566.95 7.49999C1570.75 7.69999 1574.55 7.89999 1578.35 8.09999C1582.35 8.09999 1586.65 8.09999 1591.25 8.09999C1587.85 22.3 1584.45 36.5 1581.05 50.7C1577.85 64.9 1574.85 79.2 1572.05 93.6L1601.75 90.3C1604.55 76.1 1607.05 62.4 1609.25 49.2C1611.45 35.8 1614.35 22 1617.95 7.79999C1622.55 6.99999 1627.65 6.39999 1633.25 5.99999C1638.85 5.39999 1644.05 4.89999 1648.85 4.5C1653.65 4.09999 1657.65 3.79999 1660.85 3.59999C1664.25 3.19999 1665.95 3 1665.95 3C1663.15 12 1660.45 21.9 1657.85 32.7C1655.45 43.3 1653.05 54.4 1650.65 66C1648.25 77.4 1645.95 89 1643.75 100.8C1641.55 112.6 1639.55 123.8 1637.75 134.4C1633.35 159.8 1629.25 185.8 1625.45 212.4L1578.65 217.8C1581.25 205.8 1583.55 194.1 1585.55 182.7C1587.55 173.1 1589.55 163.1 1591.55 152.7C1593.75 142.3 1595.45 133.4 1596.65 126L1567.55 128.7C1566.15 136.3 1564.45 145.1 1562.45 155.1C1560.65 165.1 1558.95 174.6 1557.35 183.6C1555.15 194.4 1552.95 205.2 1550.75 216L1504.55 225.6ZM1693.67 220.5L1707.47 160.2C1707.47 151.6 1707.27 142.3 1706.87 132.3C1706.67 122.1 1706.27 111.9 1705.67 101.7C1705.07 91.5 1704.47 81.7 1703.87 72.3C1703.27 62.7 1702.77 54.3 1702.37 47.1C1701.97 39.7 1701.57 33.8 1701.17 29.4C1700.77 25 1700.57 22.8 1700.57 22.8L1749.47 4.19998V40.8C1749.47 45.8 1749.47 50.9 1749.47 56.1C1749.47 61.3 1749.37 66.4 1749.17 71.4C1749.17 76.4 1749.17 81.1 1749.17 85.5C1749.17 89.9 1749.17 93.6 1749.17 96.6C1751.77 89.8 1754.87 81.4 1758.47 71.4C1762.27 61.4 1765.77 51.7 1768.97 42.3C1772.77 31.3 1776.67 19.7 1780.67 7.49999L1827.17 18C1818.57 35.2 1810.17 52.3 1801.97 69.3C1798.57 76.7 1794.97 84.4 1791.17 92.4C1787.37 100.2 1783.57 108.1 1779.77 116.1C1775.97 123.9 1772.27 131.5 1768.67 138.9C1765.07 146.3 1761.77 153.2 1758.77 159.6C1757.77 164.8 1756.47 170.5 1754.87 176.7C1753.47 182.9 1752.07 188.8 1750.67 194.4C1748.87 201 1746.97 207.6 1744.97 214.2L1693.67 220.5Z" fill="black" fill-opacity="0.22"/>
</svg>
