<svg width="584" height="152" viewBox="0 0 584 152" fill="none" xmlns="http://www.w3.org/2000/svg">
<path d="M0.800001 151.8C2.53333 133.133 4.13333 114.8 5.6 96.8C6.26667 89.3333 6.86667 81.4667 7.4 73.2C8.06667 64.9333 8.6 56.8 9 48.8C9.53333 40.6667 9.93333 32.8667 10.2 25.4C10.4667 17.8 10.6667 10.8667 10.8 4.59999C14 4.59999 17.4 4.53332 21 4.39999C24.7333 4.26666 28.0667 4.13333 31 4C34.0667 3.86666 36.6667 3.73333 38.8 3.59999C40.9333 3.33333 42 3.19999 42 3.19999C40.5333 18.6667 39.2667 31.4 38.2 41.4C37.1333 51.2667 36.2667 59.3333 35.6 65.6C35.0667 71.7333 34.5333 77.6667 34 83.4C33.6 89.1333 33.1333 94.4667 32.6 99.4C32.0667 104.333 31.6 108.533 31.2 112H34.8L57.2 5.59999C60.8 5.46666 64.4667 5.26666 68.2 5C71.5333 4.73332 75 4.53332 78.6 4.39999C82.3333 4.26666 85.7333 3.99999 88.8 3.59999C86.9333 9.46666 85 15.9333 83 23C81.1333 30.0667 79.1333 37.4 77 45C75 52.6 73 60.3333 71 68.2C69.1333 76.0667 67.2667 83.6667 65.4 91C61.1333 108.2 56.8667 125.867 52.6 144L0.800001 151.8ZM122.781 146C121.581 146 119.181 146.2 115.581 146.6C112.115 146.867 108.515 147.267 104.781 147.8C101.048 148.2 97.6479 148.6 94.5813 149C91.6479 149.4 90.0479 149.667 89.7813 149.8C91.1146 144.067 92.4479 137.733 93.7813 130.8C95.2479 123.733 96.7146 116.4 98.1813 108.8C99.6479 101.067 101.048 93.2667 102.381 85.4C103.715 77.5333 104.981 69.9333 106.181 62.6C108.981 45.5333 111.781 28 114.581 9.99999L145.781 5C142.715 22.8667 139.715 40.4 136.781 57.6C135.581 64.9333 134.315 72.5333 132.981 80.4C131.781 88.2667 130.515 96.0667 129.181 103.8C127.981 111.533 126.848 119.067 125.781 126.4C124.715 133.6 123.715 140.133 122.781 146ZM255.011 47.8C255.011 54.7333 254.011 62.1333 252.011 70C250.011 77.7333 247.211 85.4667 243.611 93.2C240.011 100.8 235.544 108.133 230.211 115.2C225.011 122.133 219.078 128.267 212.411 133.6C205.744 138.8 198.411 143 190.411 146.2C182.544 149.4 174.144 151 165.211 151C163.344 151 161.478 150.867 159.611 150.6C157.744 150.467 155.878 150.267 154.011 150C157.611 131.6 161.144 113.667 164.611 96.2C165.944 88.8667 167.344 81.2667 168.811 73.4C170.278 65.4 171.678 57.5333 173.011 49.8C174.344 42.0667 175.611 34.6667 176.811 27.6C178.144 20.5333 179.211 14.1333 180.011 8.4C185.744 7.33333 191.544 6.33333 197.411 5.39999C203.278 4.46666 209.278 4 215.411 4C222.611 4 228.678 5.13333 233.611 7.39999C238.678 9.66666 242.744 12.8 245.811 16.8C249.011 20.8 251.344 25.4667 252.811 30.8C254.278 36.1333 255.011 41.8 255.011 47.8ZM207.811 32.2C206.344 40.0667 204.811 47.6 203.211 54.8C201.611 62 200.011 69.2667 198.411 76.6C196.811 83.9333 195.211 91.6 193.611 99.6C192.011 107.6 190.478 116.333 189.011 125.8C192.211 123.667 195.278 120.8 198.211 117.2C201.278 113.467 204.144 109.2 206.811 104.4C209.478 99.6 211.878 94.5333 214.011 89.2C216.278 83.8667 218.211 78.6667 219.811 73.6C221.411 68.5333 222.611 63.8 223.411 59.4C224.344 55 224.811 51.2 224.811 48C224.811 43.0667 223.411 39.2 220.611 36.4C217.944 33.6 213.678 32.2 207.811 32.2ZM267.092 150.2L293.292 7.99999L356.492 2.59999C355.559 5.53333 354.759 8.53333 354.092 11.6C353.426 14.1333 352.759 16.8 352.092 19.6C351.559 22.2667 351.092 24.6667 350.692 26.8C349.359 26.9333 347.426 27.0667 344.892 27.2C342.492 27.2 339.892 27.2667 337.092 27.4C334.292 27.4 331.426 27.4 328.492 27.4C325.692 27.4 323.226 27.4 321.092 27.4L314.092 63.2C318.226 62.9333 322.092 62.7333 325.692 62.6C328.626 62.4667 331.626 62.4 334.692 62.4C337.759 62.4 340.026 62.3333 341.492 62.2C340.959 65.9333 340.426 69.6 339.892 73.2C339.492 76.8 338.959 80.4667 338.292 84.2C336.959 84.3333 334.759 84.4667 331.692 84.6C328.759 84.6 325.759 84.6667 322.692 84.8C319.226 84.9333 315.426 85.0667 311.292 85.2L304.492 122L333.692 117.4L331.692 140.2L267.092 150.2ZM469.656 41.8C469.656 52.7333 468.456 63.0667 466.056 72.8C463.79 82.4 460.723 91.2667 456.856 99.4C452.99 107.4 448.456 114.6 443.256 121C438.19 127.267 432.856 132.667 427.256 137.2C421.656 141.6 415.99 145 410.256 147.4C404.523 149.667 399.056 150.8 393.856 150.8C389.456 150.8 385.456 150 381.856 148.4C378.256 146.667 375.123 144.2 372.456 141C369.79 137.667 367.656 133.467 366.056 128.4C364.59 123.2 363.856 117 363.856 109.8C363.856 102.333 364.79 94.4667 366.656 86.2C368.523 77.9333 371.056 69.7333 374.256 61.6C377.456 53.4667 381.39 45.7333 386.056 38.4C390.723 31.0667 395.856 24.6 401.456 19C407.056 13.2667 413.056 8.73333 419.456 5.39999C425.856 2.06666 432.523 0.399995 439.456 0.399995C445.456 0.399995 450.39 1.66666 454.256 4.19999C458.256 6.59999 461.323 9.79999 463.456 13.8C465.723 17.6667 467.323 22.0667 468.256 27C469.19 31.9333 469.656 36.8667 469.656 41.8ZM393.656 104.6C393.656 106.067 393.923 107.6 394.456 109.2C394.99 110.8 395.723 112.2 396.656 113.4C397.59 114.6 398.723 115.667 400.056 116.6C401.523 117.4 403.056 117.8 404.656 117.8C410.656 117.8 415.99 115.733 420.656 111.6C425.323 107.467 429.19 102.4 432.256 96.4C435.323 90.4 437.656 84 439.256 77.2C440.99 70.4 441.856 64.2 441.856 58.6C441.856 57 441.723 55.2667 441.456 53.4C441.323 51.5333 440.923 49.8 440.256 48.2C439.723 46.6 438.79 45.2667 437.456 44.2C436.256 43 434.59 42.4 432.456 42.4C428.19 42.4 424.256 43.4667 420.656 45.6C417.056 47.7333 413.79 50.6 410.856 54.2C408.056 57.6667 405.59 61.6667 403.456 66.2C401.323 70.6 399.456 75.1333 397.856 79.8C396.39 84.3333 395.323 88.8 394.656 93.2C393.99 97.6 393.656 101.4 393.656 104.6ZM568.889 100.6C568.889 108.067 567.422 114.867 564.489 121C561.689 127 557.822 132.2 552.889 136.6C548.089 141 542.356 144.4 535.689 146.8C529.156 149.2 522.089 150.4 514.489 150.4C509.156 150.4 503.822 149 498.489 146.2C493.156 143.267 488.022 138.667 483.089 132.4L497.889 103.4C498.822 105.133 500.222 106.933 502.089 108.8C503.956 110.533 506.022 112.067 508.289 113.4C510.689 114.733 513.022 115.867 515.289 116.8C517.689 117.6 519.822 118 521.689 118C523.289 118 524.956 117.733 526.689 117.2C528.422 116.667 530.022 115.867 531.489 114.8C532.956 113.733 534.089 112.533 534.889 111.2C535.822 109.733 536.289 108.067 536.289 106.2C536.289 103 535.222 100.067 533.089 97.4C531.089 94.6 528.556 92 525.489 89.6C522.422 87.0667 519.089 84.5333 515.489 82C511.889 79.4667 508.556 76.8 505.489 74C502.556 71.2 500.022 68.0667 497.889 64.6C495.756 61.1333 494.689 57.2667 494.689 53C494.689 46.0667 496.756 39.6 500.889 33.6C505.022 27.6 510.156 22.4667 516.289 18.2C522.556 13.8 529.356 10.3333 536.689 7.79999C544.022 5.26666 550.956 4 557.489 4C561.089 4 564.489 4.46666 567.689 5.39999C570.889 6.2 573.622 7.6 575.889 9.6C578.289 11.4667 580.156 13.8667 581.489 16.8C582.956 19.7333 583.689 23.4 583.689 27.8C583.689 29.6667 583.489 31.5333 583.089 33.4C582.822 35.2667 582.556 37.2667 582.289 39.4L553.289 47.8C553.556 46.7333 553.756 45.6667 553.889 44.6C554.156 43.5333 554.289 42.4667 554.289 41.4C554.289 37.4 553.556 34.5333 552.089 32.8C550.756 30.9333 548.956 30 546.689 30C545.622 30 544.289 30.4 542.689 31.2C541.222 32 539.689 33.0667 538.089 34.4C536.622 35.6 535.356 37.0667 534.289 38.8C533.222 40.5333 532.689 42.4 532.689 44.4C532.689 47.6 533.556 50.2667 535.289 52.4C537.156 54.5333 539.422 56.5333 542.089 58.4C544.756 60.2667 547.622 62.2 550.689 64.2C553.889 66.0667 556.822 68.5333 559.489 71.6C562.156 74.6667 564.356 78.5333 566.089 83.2C567.956 87.7333 568.889 93.5333 568.889 100.6Z" fill="black" fill-opacity="0.22"/>
</svg>
